<svg width="206" height="200" viewBox="0 0 206 200" fill="none" xmlns="http://www.w3.org/2000/svg">
    <g clip-path="url(#clip0_25_308)">
        <path d="M36.3248 0H168.803C188.889 0 205.128 16.2393 205.128 36.3248V163.675C205.128 183.761 188.889 200 168.803 200H36.3248C16.2393 200 0 183.761 0 163.675V36.3248C0 16.2393 16.2393 0 36.3248 0Z" fill="#001E36"/>
        <path d="M46.1543 140.256V52.3077C46.1543 51.7094 46.4107 51.3675 47.009 51.3675C48.462 51.3675 49.8295 51.3675 51.7953 51.282C53.8466 51.1966 55.9834 51.1966 58.291 51.1111C60.5987 51.0256 63.0774 51.0256 65.7269 50.9401C68.3765 50.8547 70.9406 50.8547 73.5047 50.8547C80.5133 50.8547 86.3252 51.7094 91.1116 53.5042C95.3851 54.9572 99.3167 57.3504 102.565 60.5128C105.3 63.2478 107.436 66.5812 108.804 70.2564C110.086 73.8461 110.77 77.5213 110.77 81.3675C110.77 88.7179 109.06 94.7863 105.641 99.5726C102.223 104.359 97.4363 107.949 91.8808 110C86.0688 112.137 79.6586 112.906 72.65 112.906C70.5987 112.906 69.2312 112.906 68.3765 112.82C67.5218 112.735 66.3252 112.735 64.7013 112.735V140.171C64.7868 140.769 64.3594 141.282 63.7611 141.367C63.6757 141.367 63.5902 141.367 63.4193 141.367H47.1799C46.4962 141.367 46.1543 141.026 46.1543 140.256ZM64.7868 67.8632V96.5812C65.9834 96.6666 67.0945 96.7521 68.1201 96.7521H72.65C75.9834 96.7521 79.3167 96.2393 82.4791 95.2136C85.2141 94.4444 87.6073 92.8205 89.4876 90.6837C91.2825 88.547 92.1372 85.641 92.1372 81.8803C92.2227 79.2307 91.5389 76.5812 90.1714 74.2735C88.7184 72.0513 86.6671 70.3419 84.1885 69.4017C81.0261 68.1196 77.6073 67.6068 74.103 67.6923C71.8808 67.6923 69.915 67.6923 68.291 67.7778C66.5816 67.6923 65.3851 67.7778 64.7868 67.8632Z" fill="#31A8FF"/>
        <path d="M164.103 91.3675C161.539 90 158.804 89.0598 155.898 88.4615C152.736 87.7778 149.573 87.3504 146.325 87.3504C144.616 87.2649 142.821 87.5214 141.197 87.9487C140.086 88.2051 139.146 88.8034 138.548 89.6581C138.12 90.3419 137.864 91.1966 137.864 91.9658C137.864 92.735 138.206 93.5043 138.719 94.188C139.488 95.1282 140.513 95.8974 141.625 96.4957C143.59 97.5214 145.642 98.4615 147.693 99.3162C152.308 100.855 156.753 102.991 160.855 105.556C163.676 107.35 165.984 109.744 167.607 112.65C168.975 115.385 169.659 118.376 169.573 121.453C169.659 125.47 168.462 129.487 166.24 132.82C163.847 136.239 160.513 138.889 156.667 140.427C152.479 142.222 147.351 143.162 141.197 143.162C137.266 143.162 133.419 142.82 129.573 142.051C126.582 141.538 123.59 140.598 120.855 139.316C120.257 138.974 119.83 138.376 119.915 137.692V122.82C119.915 122.564 120.001 122.222 120.257 122.051C120.513 121.88 120.77 121.966 121.026 122.137C124.36 124.103 127.864 125.47 131.625 126.325C134.872 127.179 138.291 127.607 141.71 127.607C144.958 127.607 147.266 127.179 148.804 126.41C150.172 125.812 151.112 124.359 151.112 122.82C151.112 121.624 150.428 120.513 149.06 119.402C147.693 118.291 144.872 117.009 140.684 115.385C136.325 113.846 132.308 111.795 128.548 109.231C125.898 107.35 123.676 104.872 122.052 101.966C120.684 99.2308 120.001 96.2393 120.086 93.2478C120.086 89.5726 121.112 86.0684 122.992 82.906C125.129 79.4872 128.291 76.7521 131.966 75.0427C135.984 72.9914 141.026 72.0513 147.095 72.0513C150.599 72.0513 154.189 72.3077 157.693 72.8205C160.257 73.1624 162.736 73.8461 165.043 74.7863C165.385 74.8718 165.727 75.2137 165.898 75.5555C165.984 75.8974 166.069 76.2393 166.069 76.5812V90.5128C166.069 90.8547 165.898 91.1966 165.642 91.3675C164.872 91.5384 164.445 91.5384 164.103 91.3675Z" fill="#31A8FF"/>
    </g>
    <defs>
        <clipPath id="clip0_25_308">
            <rect width="205.128" height="200" fill="white"/>
        </clipPath>
    </defs>
</svg>